<svg xmlns="http://www.w3.org/2000/svg" width="20" height="20" viewBox="0 0 20 20"><path fill="#584D62" d="M18.896 0H1.104C.494 0 0 .494 0 1.104v17.793C0 19.506.494 20 1.104 20h9.58v-7.745H8.076V9.237h2.606V7.01c0-2.583 1.578-3.99 3.883-3.99 1.104 0 2.052.082 2.329.119v2.7h-1.598c-1.254 0-1.496.597-1.496 1.47v1.928h2.989l-.39 3.018h-2.6V20h5.098c.608 0 1.102-.494 1.102-1.104V1.104C20 .494 19.506 0 18.896 0Z"/></svg>
<svg xmlns="http://www.w3.org/2000/svg" width="20" height="17" viewBox="0 0 20 17"><path fill="#584D62" d="M20 2.172a8.192 8.192 0 0 1-2.357.646 4.11 4.11 0 0 0 1.805-2.27 8.22 8.22 0 0 1-2.606.996A4.096 4.096 0 0 0 13.847.248c-2.65 0-4.596 2.472-3.998 5.037A11.648 11.648 0 0 1 1.392 1a4.109 4.109 0 0 0 1.27 5.478 4.086 4.086 0 0 1-1.858-.513c-.045 1.9 1.318 3.679 3.291 4.075a4.113 4.113 0 0 1-1.853.07 4.106 4.106 0 0 0 3.833 2.849A8.25 8.25 0 0 1 0 14.658a11.616 11.616 0 0 0 6.29 1.843c7.618 0 11.923-6.434 11.663-12.205A8.354 8.354 0 0 0 20 2.172Z"/></svg>